<svg width="700pt" height="700pt" viewBox="0 0 700 700" xmlns="http://www.w3.org/2000/svg"><defs><symbol id="a" overflow="visible"><path d="M39.078-2.328C37.066-1.285 34.968-.5 32.781.032s-4.465.796-6.828.796c-7.086 0-12.699-1.976-16.844-5.937-4.137-3.957-6.203-9.328-6.203-16.11 0-6.788 2.066-12.163 6.203-16.124 4.145-3.97 9.758-5.953 16.844-5.953 2.363 0 4.64.265 6.828.796s4.285 1.325 6.297 2.375v8.797c-2.031-1.382-4.04-2.398-6.016-3.047-1.968-.644-4.046-.968-6.234-.968-3.906 0-6.984 1.258-9.234 3.765-2.243 2.5-3.36 5.953-3.36 10.36 0 4.386 1.117 7.835 3.36 10.343 2.25 2.5 5.328 3.75 9.234 3.75 2.188 0 4.266-.32 6.234-.968 1.977-.645 3.985-1.66 6.016-3.047z"/></symbol><symbol id="h" overflow="visible"><path d="M16.031-40.953v9.063h10.516v7.28H16.031v13.532c0 1.48.29 2.48.875 3 .594.523 1.766.78 3.516.78h5.234V0h-8.734c-4.032 0-6.887-.836-8.563-2.516-1.68-1.687-2.516-4.539-2.516-8.562V-24.61H.765v-7.281h5.078v-9.063z"/></symbol><symbol id="g" overflow="visible"><path d="M26.594-27.234v-17.078H36.86V0H26.594v-4.61c-1.398 1.876-2.945 3.25-4.64 4.126C20.265.39 18.312.828 16.093.828c-3.93 0-7.156-1.562-9.688-4.687-2.523-3.125-3.78-7.145-3.78-12.062 0-4.914 1.257-8.938 3.78-12.062 2.532-3.125 5.758-4.688 9.688-4.688 2.195 0 4.144.445 5.844 1.328 1.707.887 3.258 2.258 4.656 4.11zM19.875-6.578c2.188 0 3.852-.797 5-2.39 1.145-1.594 1.719-3.91 1.719-6.954 0-3.039-.574-5.36-1.719-6.953-1.148-1.594-2.812-2.39-5-2.39-2.168 0-3.824.796-4.969 2.39-1.148 1.594-1.718 3.914-1.718 6.953 0 3.043.57 5.36 1.718 6.953 1.145 1.594 2.801 2.391 4.97 2.391z"/></symbol><symbol id="f" overflow="visible"><path d="M21.875-6.578c2.176 0 3.836-.797 4.984-2.39 1.157-1.595 1.735-3.91 1.735-6.954 0-3.039-.578-5.36-1.735-6.953-1.148-1.594-2.808-2.39-4.984-2.39-2.188 0-3.867.804-5.031 2.406-1.168 1.605-1.75 3.918-1.75 6.937 0 3.024.582 5.336 1.75 6.938 1.164 1.605 2.844 2.406 5.031 2.406zm-6.781-20.656c1.406-1.852 2.96-3.223 4.672-4.11 1.707-.882 3.672-1.328 5.89-1.328 3.938 0 7.164 1.563 9.688 4.688 2.52 3.125 3.781 7.148 3.781 12.062 0 4.918-1.262 8.937-3.781 12.062C32.82-.735 29.594.827 25.656.827c-2.218 0-4.183-.445-5.89-1.328-1.711-.883-3.266-2.254-4.672-4.11V0H4.906v-44.312h10.188z"/></symbol><symbol id="e" overflow="visible"><path d="M5.36-42.516h10.952V0H5.36z"/></symbol><symbol id="d" overflow="visible"><path d="M24.781-35.344c-3.344 0-5.938 1.234-7.781 3.703s-2.766 5.945-2.766 10.422c0 4.461.922 7.922 2.766 10.391s4.437 3.703 7.781 3.703c3.352 0 5.953-1.234 7.797-3.703s2.765-5.93 2.765-10.39c0-4.478-.921-7.954-2.765-10.423s-4.445-3.703-7.797-3.703zm0-7.953c6.832 0 12.188 1.96 16.062 5.875 3.875 3.906 5.813 9.308 5.813 16.203 0 6.875-1.938 12.273-5.813 16.188-3.875 3.906-9.23 5.86-16.062 5.86-6.824 0-12.18-1.954-16.062-5.86-3.875-3.914-5.812-9.313-5.812-16.188 0-6.895 1.937-12.297 5.812-16.203 3.883-3.914 9.238-5.875 16.062-5.875z"/></symbol><symbol id="c" overflow="visible"><path d="M5.36-42.516h12.233l15.47 29.156v-29.156h10.405V0h-12.25L15.75-29.172V0H5.36z"/></symbol><symbol id="b" overflow="visible"><path d="M20.938-23.672c2.29 0 3.938-.426 4.938-1.281 1-.852 1.5-2.258 1.5-4.219 0-1.926-.5-3.305-1.5-4.14-1-.844-2.649-1.266-4.938-1.266h-4.625v10.906zm-4.625 7.578V0H5.36v-42.516h16.734c5.602 0 9.707.945 12.312 2.828 2.613 1.875 3.922 4.844 3.922 8.906 0 2.805-.68 5.11-2.031 6.922-1.356 1.805-3.403 3.133-6.14 3.985 1.5.343 2.843 1.12 4.03 2.328 1.188 1.199 2.39 3.023 3.61 5.469L43.75 0H32.062L26.89-10.562c-1.055-2.125-2.117-3.579-3.188-4.36-1.074-.781-2.5-1.172-4.28-1.172z"/></symbol></defs><path fill="red" d="M268.33 23.332c-6.441 0-11.664 5.227-11.664 11.668v70c0 6.441 5.223 11.668 11.664 11.668 6.445 0 11.668-5.227 11.668-11.668V35c0-6.441-5.223-11.668-11.668-11.668zM151.82 35.16c-2.984 0-5.969 1.14-8.246 3.418-4.559 4.555-4.559 11.941 0 16.496l46.664 46.668c4.558 4.555 11.94 4.555 16.5 0 4.555-4.559 4.555-11.941 0-16.5L160.07 38.578a11.63 11.63 0 00-8.25-3.418zM520.8 46.668a57.923 57.923 0 00-22.719 4.418l-123.75 51.27c-29.672 12.293-43.879 46.559-31.582 76.246l51.246 123.71c12.297 29.688 46.57 43.895 76.242 31.605l123.75-51.27c29.672-12.293 43.879-46.559 31.582-76.246l-51.246-123.71C565.1 60.425 543.53 46.867 520.8 46.668zm-.047 23.242c13.652.035 26.391 8.133 32.016 21.715l51.223 123.71c7.504 18.109-.832 38.234-18.934 45.73l-123.75 51.27c-18.102 7.5-38.254-.848-45.758-18.957l-51.223-123.71c-7.5-18.109.836-38.234 18.938-45.73l123.75-51.273c4.527-1.871 9.192-2.766 13.742-2.754zm-13.262 46.758a17.497 17.497 0 00-17.5 17.5c0 4.64 1.844 9.09 5.125 12.375a17.504 17.504 0 0024.75 0 17.51 17.51 0 005.125-12.375 17.497 17.497 0 00-17.5-17.5zm-367.5 35c-6.441 0-11.668 5.223-11.668 11.664 0 6.445 5.227 11.668 11.668 11.668h70c6.442 0 11.668-5.223 11.668-11.668 0-6.441-5.226-11.664-11.668-11.664zm285.83 0a17.497 17.497 0 00-17.5 17.5c0 4.64 1.844 9.09 5.125 12.375a17.51 17.51 0 0012.375 5.125 17.497 17.497 0 0017.5-17.5 17.497 17.497 0 00-17.5-17.5zm116.67 46.664c-4.64 0-9.094 1.844-12.375 5.125a17.51 17.51 0 00-5.125 12.375 17.497 17.497 0 0017.5 17.5 17.497 17.497 0 0017.5-17.5c0-4.64-1.844-9.09-5.125-12.375a17.504 17.504 0 00-12.375-5.125zm-363.31 23.336c-22.73.2-44.3 13.758-53.523 36.023l-51.246 123.71c-12.297 29.688 1.91 63.953 31.582 76.246l123.75 51.27c29.676 12.289 63.95-1.918 76.246-31.605l51.246-123.71c12.297-29.688-1.91-63.953-31.582-76.246l-123.75-51.27a57.993 57.993 0 00-22.719-4.418zm281.64 11.664a17.51 17.51 0 00-12.375 5.125 17.51 17.51 0 00-5.125 12.375 17.497 17.497 0 0017.5 17.5 17.497 17.497 0 0017.5-17.5 17.497 17.497 0 00-17.5-17.5zm-281.59 11.578c4.55-.012 9.215.883 13.738 2.758l123.75 51.27c18.102 7.496 26.438 27.62 18.938 45.73l-51.227 123.71c-7.5 18.109-27.652 26.457-45.754 18.957l-123.75-51.27c-18.102-7.496-26.438-27.621-18.934-45.73l51.223-123.71c5.625-13.582 18.363-21.684 32.016-21.715zm83.262 81.758a17.497 17.497 0 00-17.5 17.5c0 4.64 1.844 9.09 5.125 12.375a17.504 17.504 0 0024.75 0 17.51 17.51 0 005.125-12.375 17.497 17.497 0 00-17.5-17.5zm-93.332 46.664a17.497 17.497 0 00-17.5 17.5 17.497 17.497 0 0017.5 17.5 17.497 17.497 0 0017.5-17.5c0-4.64-1.844-9.09-5.125-12.375a17.51 17.51 0 00-12.375-5.125zM478.321 385c-6.363.094-11.664 5.281-11.664 11.668 0 6.441 5.223 11.664 11.664 11.664h70c6.445 0 11.668-5.223 11.668-11.664 0-6.445-5.223-11.668-11.668-11.668zm-58.332 58.332c-6.387 0-11.578 5.3-11.668 11.668v70c0 6.441 5.227 11.668 11.668 11.668s11.668-5.227 11.668-11.668v-70c0-6.441-5.226-11.668-11.668-11.668zm70.16 11.828a11.63 11.63 0 00-8.25 3.418c-4.5 4.5-4.527 11.746-.137 16.312l-.023.023 46.668 46.668c4.555 4.555 12.102 4.715 16.656.16 4.559-4.558 4.398-12.101-.16-16.655l-46.508-46.508-.156-.16-.024.023c-2.258-2.168-5.156-3.281-8.066-3.281z" fill-rule="evenodd"/></svg>