<svg id="Слой_1" data-name="Слой 1" xmlns="http://www.w3.org/2000/svg" viewBox="0 0 560.01 513.34"><path d="M185.18 291.67a58.52 58.52 0 00-53.52 36L80.41 451.4A58.5 58.5 0 00112 527.65l123.75 51.27A58.5 58.5 0 00312 547.31l51.24-123.71a58.48 58.48 0 00-31.59-76.24L207.9 296.09a57.89 57.89 0 00-22.71-4.42zm341.62-175a57.94 57.94 0 00-22.72 4.42l-123.75 51.27a58.48 58.48 0 00-31.58 76.24L400 372.31a58.51 58.51 0 0076.25 31.61L600 352.65a58.49 58.49 0 0031.58-76.25l-51.26-123.71a58.52 58.52 0 00-53.52-36zm0 23.24a34.69 34.69 0 0132 21.71L610 285.33a34.65 34.65 0 01-18.93 45.73l-123.76 51.27a34.7 34.7 0 01-45.76-18.95l-51.22-123.71a34.65 34.65 0 0118.94-45.73L513 142.66a35.73 35.73 0 0113.74-2.75zm-13.26 46.76a17.48 17.48 0 1012.38 5.12 17.49 17.49 0 00-12.38-5.12zm-81.67 35a17.48 17.48 0 1012.38 5.12 17.49 17.49 0 00-12.43-5.12zm116.67 46.66a17.5 17.5 0 1012.38 5.13 17.5 17.5 0 00-12.43-5.13zm-81.67 35a17.5 17.5 0 1012.38 5.13 17.5 17.5 0 00-12.43-5.13zm-281.64 11.58a35.56 35.56 0 0113.77 2.76l123.75 51.27a34.66 34.66 0 0118.94 45.73l-51.26 123.71a34.69 34.69 0 01-45.75 19l-123.75-51.32A34.65 34.65 0 01102 460.33l51.23-123.71a34.66 34.66 0 0132-21.71zm83.26 81.76a17.48 17.48 0 1012.38 5.12 17.49 17.49 0 00-12.38-5.12zm-93.33 46.66a17.5 17.5 0 1012.38 5.13 17.5 17.5 0 00-12.38-5.13zm99.17-350A11.67 11.67 0 00262.67 105v70a11.67 11.67 0 1023.33 0v-70a11.67 11.67 0 00-11.67-11.67zm-116.51 11.83a11.67 11.67 0 00-8.25 19.91l46.67 46.67a11.67 11.67 0 0016.5-16.5l-46.67-46.66a11.62 11.62 0 00-8.25-3.42zM146 221.67a11.67 11.67 0 100 23.33h70a11.67 11.67 0 100-23.33zM484.32 455a11.81 11.81 0 00-11.66 11.67 11.66 11.66 0 0011.66 11.66h70a11.67 11.67 0 100-23.33zM426 513.33A11.81 11.81 0 00414.32 525v70a11.67 11.67 0 0023.34 0v-70A11.68 11.68 0 00426 513.33zm70.16 11.83a11.65 11.65 0 00-8.39 19.73l46.67 46.67a11.66 11.66 0 1016.49-16.49l-46.51-46.51-.15-.16a11.64 11.64 0 00-8.07-3.28z" transform="translate(-75.98 -93.33)" fill="red" fill-rule="evenodd"/></svg>