
<svg width="700pt" height="700pt" version="1.1" viewBox="0 0 700 700" xmlns="http://www.w3.org/2000/svg" xmlns:xlink="http://www.w3.org/1999/xlink">
 <defs>
  <symbol id="a" overflow="visible">
   <path d="m39.078-2.3281c-2.0117 1.043-4.1094 1.8281-6.2969 2.3594s-4.4648 0.79688-6.8281 0.79688c-7.0859 0-12.699-1.9766-16.844-5.9375-4.1367-3.957-6.2031-9.3281-6.2031-16.109 0-6.7891 2.0664-12.164 6.2031-16.125 4.1445-3.9688 9.7578-5.9531 16.844-5.9531 2.3633 0 4.6406 0.26562 6.8281 0.79688s4.2852 1.3242 6.2969 2.375v8.7969c-2.0312-1.3828-4.0391-2.3984-6.0156-3.0469-1.9688-0.64453-4.0469-0.96875-6.2344-0.96875-3.9062 0-6.9844 1.2578-9.2344 3.7656-2.2422 2.5-3.3594 5.9531-3.3594 10.359 0 4.3867 1.1172 7.8359 3.3594 10.344 2.25 2.5 5.3281 3.75 9.2344 3.75 2.1875 0 4.2656-0.32031 6.2344-0.96875 1.9766-0.64453 3.9844-1.6602 6.0156-3.0469z"/>
  </symbol>
  <symbol id="h" overflow="visible">
   <path d="m16.031-40.953v9.0625h10.516v7.2812h-10.516v13.531c0 1.4805 0.28906 2.4805 0.875 3 0.59375 0.52344 1.7656 0.78125 3.5156 0.78125h5.2344v7.2969h-8.7344c-4.0312 0-6.8867-0.83594-8.5625-2.5156-1.6797-1.6875-2.5156-4.5391-2.5156-8.5625v-13.531h-5.0781v-7.2812h5.0781v-9.0625z"/>
  </symbol>
  <symbol id="g" overflow="visible">
   <path d="m26.594-27.234v-17.078h10.266v44.312h-10.266v-4.6094c-1.3984 1.875-2.9453 3.25-4.6406 4.125-1.6875 0.875-3.6406 1.3125-5.8594 1.3125-3.9297 0-7.1562-1.5625-9.6875-4.6875-2.5234-3.125-3.7812-7.1445-3.7812-12.062 0-4.9141 1.2578-8.9375 3.7812-12.062 2.5312-3.125 5.7578-4.6875 9.6875-4.6875 2.1953 0 4.1445 0.44531 5.8438 1.3281 1.707 0.88672 3.2578 2.2578 4.6562 4.1094zm-6.7188 20.656c2.1875 0 3.8516-0.79688 5-2.3906 1.1445-1.5938 1.7188-3.9102 1.7188-6.9531 0-3.0391-0.57422-5.3594-1.7188-6.9531-1.1484-1.5938-2.8125-2.3906-5-2.3906-2.168 0-3.8242 0.79688-4.9688 2.3906-1.1484 1.5938-1.7188 3.9141-1.7188 6.9531 0 3.043 0.57031 5.3594 1.7188 6.9531 1.1445 1.5938 2.8008 2.3906 4.9688 2.3906z"/>
  </symbol>
  <symbol id="f" overflow="visible">
   <path d="m21.875-6.5781c2.1758 0 3.8359-0.79688 4.9844-2.3906 1.1562-1.5938 1.7344-3.9102 1.7344-6.9531 0-3.0391-0.57812-5.3594-1.7344-6.9531-1.1484-1.5938-2.8086-2.3906-4.9844-2.3906-2.1875 0-3.8672 0.80469-5.0312 2.4062-1.168 1.6055-1.75 3.918-1.75 6.9375 0 3.0234 0.58203 5.3359 1.75 6.9375 1.1641 1.6055 2.8438 2.4062 5.0312 2.4062zm-6.7812-20.656c1.4062-1.8516 2.9609-3.2227 4.6719-4.1094 1.707-0.88281 3.6719-1.3281 5.8906-1.3281 3.9375 0 7.1641 1.5625 9.6875 4.6875 2.5195 3.125 3.7812 7.1484 3.7812 12.062 0 4.918-1.2617 8.9375-3.7812 12.062-2.5234 3.125-5.75 4.6875-9.6875 4.6875-2.2188 0-4.1836-0.44531-5.8906-1.3281-1.7109-0.88281-3.2656-2.2539-4.6719-4.1094v4.6094h-10.188v-44.312h10.188z"/>
  </symbol>
  <symbol id="e" overflow="visible">
   <path d="m5.3594-42.516h10.953v42.516h-10.953z"/>
  </symbol>
  <symbol id="d" overflow="visible">
   <path d="m24.781-35.344c-3.3438 0-5.9375 1.2344-7.7812 3.7031s-2.7656 5.9453-2.7656 10.422c0 4.4609 0.92188 7.9219 2.7656 10.391s4.4375 3.7031 7.7812 3.7031c3.3516 0 5.9531-1.2344 7.7969-3.7031s2.7656-5.9297 2.7656-10.391c0-4.4766-0.92188-7.9531-2.7656-10.422s-4.4453-3.7031-7.7969-3.7031zm0-7.9531c6.832 0 12.188 1.9609 16.062 5.875 3.875 3.9062 5.8125 9.3086 5.8125 16.203 0 6.875-1.9375 12.273-5.8125 16.188-3.875 3.9062-9.2305 5.8594-16.062 5.8594-6.8242 0-12.18-1.9531-16.062-5.8594-3.875-3.9141-5.8125-9.3125-5.8125-16.188 0-6.8945 1.9375-12.297 5.8125-16.203 3.8828-3.9141 9.2383-5.875 16.062-5.875z"/>
  </symbol>
  <symbol id="c" overflow="visible">
   <path d="m5.3594-42.516h12.234l15.469 29.156v-29.156h10.406v42.516h-12.25l-15.469-29.172v29.172h-10.391z"/>
  </symbol>
  <symbol id="b" overflow="visible">
   <path d="m20.938-23.672c2.2891 0 3.9375-0.42578 4.9375-1.2812 1-0.85156 1.5-2.2578 1.5-4.2188 0-1.9258-0.5-3.3047-1.5-4.1406-1-0.84375-2.6484-1.2656-4.9375-1.2656h-4.625v10.906zm-4.625 7.5781v16.094h-10.953v-42.516h16.734c5.6016 0 9.707 0.94531 12.312 2.8281 2.6133 1.875 3.9219 4.8438 3.9219 8.9062 0 2.8047-0.67969 5.1094-2.0312 6.9219-1.3555 1.8047-3.4023 3.1328-6.1406 3.9844 1.5 0.34375 2.8438 1.1211 4.0312 2.3281 1.1875 1.1992 2.3906 3.0234 3.6094 5.4688l5.9531 12.078h-11.688l-5.1719-10.562c-1.0547-2.125-2.1172-3.5781-3.1875-4.3594-1.0742-0.78125-2.5-1.1719-4.2812-1.1719z"/>
  </symbol>
 </defs>
 <g>
  <path fill="red" d="m268.33 23.332c-6.4414 0-11.664 5.2266-11.664 11.668v70c0 6.4414 5.2227 11.668 11.664 11.668 6.4453 0 11.668-5.2266 11.668-11.668v-70c0-6.4414-5.2227-11.668-11.668-11.668zm-116.51 11.828c-2.9844 0-5.9688 1.1406-8.2461 3.418-4.5586 4.5547-4.5586 11.941 0 16.496l46.664 46.668c4.5586 4.5547 11.941 4.5547 16.5 0 4.5547-4.5586 4.5547-11.941 0-16.5l-46.668-46.664c-2.2773-2.2773-5.2617-3.418-8.25-3.418zm368.98 11.508c-7.5781-0.070313-15.301 1.3477-22.719 4.418l-123.75 51.27c-29.672 12.293-43.879 46.559-31.582 76.246l51.246 123.71c12.297 29.688 46.57 43.895 76.242 31.605l123.75-51.27c29.672-12.293 43.879-46.559 31.582-76.246l-51.246-123.71c-9.2227-22.266-30.793-35.824-53.523-36.023zm-0.046875 23.242c13.652 0.035156 26.391 8.1328 32.016 21.715l51.223 123.71c7.5039 18.109-0.83203 38.234-18.934 45.73l-123.75 51.27c-18.102 7.5-38.254-0.84766-45.758-18.957l-51.223-123.71c-7.5-18.109 0.83594-38.234 18.938-45.73l123.75-51.273c4.5273-1.8711 9.1914-2.7656 13.742-2.7539zm-13.262 46.758c-4.6406 0-9.0938 1.8438-12.375 5.125s-5.125 7.7305-5.125 12.375c0 4.6406 1.8438 9.0898 5.125 12.375 3.2812 3.2812 7.7344 5.125 12.375 5.125s9.0938-1.8438 12.375-5.125c3.2812-3.2852 5.125-7.7344 5.125-12.375 0-4.6445-1.8438-9.0938-5.125-12.375s-7.7344-5.125-12.375-5.125zm-367.5 35c-6.4414 0-11.668 5.2227-11.668 11.664 0 6.4453 5.2266 11.668 11.668 11.668h70c6.4414 0 11.668-5.2227 11.668-11.668 0-6.4414-5.2266-11.664-11.668-11.664zm285.83 0c-4.6406 0-9.0898 1.8438-12.375 5.125-3.2812 3.2812-5.125 7.7305-5.125 12.375 0 4.6406 1.8438 9.0898 5.125 12.375 3.2852 3.2812 7.7344 5.125 12.375 5.125 4.6445 0 9.0938-1.8438 12.375-5.125 3.2812-3.2852 5.125-7.7344 5.125-12.375 0-4.6445-1.8438-9.0938-5.125-12.375s-7.7305-5.125-12.375-5.125zm116.67 46.664c-4.6406 0-9.0938 1.8438-12.375 5.125-3.2812 3.2852-5.125 7.7344-5.125 12.375 0 4.6445 1.8438 9.0938 5.125 12.375s7.7344 5.125 12.375 5.125 9.0938-1.8438 12.375-5.125 5.125-7.7305 5.125-12.375c0-4.6406-1.8438-9.0898-5.125-12.375-3.2812-3.2812-7.7344-5.125-12.375-5.125zm-363.31 23.336c-22.73 0.19922-44.301 13.758-53.523 36.023l-51.246 123.71c-12.297 29.688 1.9102 63.953 31.582 76.246l123.75 51.27c29.676 12.289 63.949-1.918 76.246-31.605l51.246-123.71c12.297-29.688-1.9102-63.953-31.582-76.246l-123.75-51.27c-7.418-3.0703-15.141-4.4844-22.719-4.418zm281.64 11.664c-4.6406 0-9.0898 1.8438-12.375 5.125-3.2812 3.2852-5.125 7.7344-5.125 12.375 0 4.6445 1.8438 9.0938 5.125 12.375 3.2852 3.2812 7.7344 5.125 12.375 5.125 4.6445 0 9.0938-1.8438 12.375-5.125s5.125-7.7305 5.125-12.375c0-4.6406-1.8438-9.0898-5.125-12.375-3.2812-3.2812-7.7305-5.125-12.375-5.125zm-281.59 11.578c4.5508-0.011718 9.2148 0.88281 13.738 2.7578l123.75 51.27c18.102 7.4961 26.438 27.621 18.938 45.73l-51.227 123.71c-7.5 18.109-27.652 26.457-45.754 18.957l-123.75-51.27c-18.102-7.4961-26.438-27.621-18.934-45.73l51.223-123.71c5.625-13.582 18.363-21.684 32.016-21.715zm83.262 81.758c-4.6406 0-9.0938 1.8438-12.375 5.125s-5.125 7.7305-5.125 12.375c0 4.6406 1.8438 9.0898 5.125 12.375 3.2812 3.2812 7.7344 5.125 12.375 5.125s9.0938-1.8438 12.375-5.125c3.2812-3.2852 5.125-7.7344 5.125-12.375 0-4.6445-1.8438-9.0938-5.125-12.375s-7.7344-5.125-12.375-5.125zm-93.332 46.664c-4.6445 0-9.0938 1.8438-12.375 5.125-3.2812 3.2852-5.125 7.7344-5.125 12.375 0 4.6445 1.8438 9.0938 5.125 12.375s7.7305 5.125 12.375 5.125c4.6406 0 9.0898-1.8438 12.375-5.125 3.2812-3.2812 5.125-7.7305 5.125-12.375 0-4.6406-1.8438-9.0898-5.125-12.375-3.2852-3.2812-7.7344-5.125-12.375-5.125zm309.16 11.668c-6.3633 0.09375-11.664 5.2812-11.664 11.668 0 6.4414 5.2227 11.664 11.664 11.664h70c6.4453 0 11.668-5.2227 11.668-11.664 0-6.4453-5.2227-11.668-11.668-11.668zm-58.332 58.332c-6.3867 0-11.578 5.3008-11.668 11.668v70c0 6.4414 5.2266 11.668 11.668 11.668s11.668-5.2266 11.668-11.668v-70c0-6.4414-5.2266-11.668-11.668-11.668zm70.16 11.828c-2.9883 0-5.9727 1.1406-8.25 3.418-4.5 4.5-4.5273 11.746-0.13672 16.312l-0.023438 0.023437 46.668 46.668c4.5547 4.5547 12.102 4.7148 16.656 0.16016 4.5586-4.5586 4.3984-12.102-0.16016-16.656l-46.508-46.508-0.15625-0.16016-0.023438 0.023437c-2.2578-2.168-5.1562-3.2812-8.0664-3.2812z" fill-rule="evenodd"/>
 </g>
</svg>
