<svg id="Слой_1" data-name="Слой 1" xmlns="http://www.w3.org/2000/svg" viewBox="0 0 560.01 513.34"><defs><style>.cls-1{fill:red;fill-rule:evenodd;}</style></defs><path class="cls-1" d="M185.18,291.67a58.52,58.52,0,0,0-53.52,36L80.41,451.4A58.5,58.5,0,0,0,112,527.65l123.75,51.27A58.5,58.5,0,0,0,312,547.31L363.24,423.6a58.48,58.48,0,0,0-31.59-76.24L207.9,296.09a57.89,57.89,0,0,0-22.71-4.42Zm341.62-175a57.94,57.94,0,0,0-22.72,4.42L380.33,172.36a58.48,58.48,0,0,0-31.58,76.24L400,372.31a58.51,58.51,0,0,0,76.25,31.61L600,352.65a58.49,58.49,0,0,0,31.58-76.25L580.32,152.69a58.52,58.52,0,0,0-53.52-36Zm0,23.24a34.69,34.69,0,0,1,32,21.71L610,285.33a34.65,34.65,0,0,1-18.93,45.73L467.31,382.33a34.7,34.7,0,0,1-45.76-18.95L370.33,239.67a34.65,34.65,0,0,1,18.94-45.73L513,142.66a35.73,35.73,0,0,1,13.74-2.75Zm-13.26,46.76a17.48,17.48,0,1,0,12.38,5.12,17.49,17.49,0,0,0-12.38-5.12Zm-81.67,35a17.48,17.48,0,1,0,12.38,5.12A17.49,17.49,0,0,0,431.82,221.67Zm116.67,46.66a17.5,17.5,0,1,0,12.38,5.13A17.5,17.5,0,0,0,548.49,268.33Zm-81.67,35a17.5,17.5,0,1,0,12.38,5.13A17.5,17.5,0,0,0,466.82,303.33ZM185.23,314.91A35.56,35.56,0,0,1,199,317.67l123.75,51.27a34.66,34.66,0,0,1,18.94,45.73L290.43,538.38a34.69,34.69,0,0,1-45.75,19L120.93,506.06A34.65,34.65,0,0,1,102,460.33l51.23-123.71a34.66,34.66,0,0,1,32-21.71Zm83.26,81.76a17.48,17.48,0,1,0,12.38,5.12A17.49,17.49,0,0,0,268.49,396.67Zm-93.33,46.66a17.5,17.5,0,1,0,12.38,5.13A17.5,17.5,0,0,0,175.16,443.33Zm99.17-350A11.67,11.67,0,0,0,262.67,105v70A11.67,11.67,0,1,0,286,175V105A11.67,11.67,0,0,0,274.33,93.33ZM157.82,105.16a11.67,11.67,0,0,0-8.25,19.91l46.67,46.67a11.67,11.67,0,0,0,16.5-16.5l-46.67-46.66a11.62,11.62,0,0,0-8.25-3.42ZM146,221.67A11.67,11.67,0,1,0,146,245h70a11.67,11.67,0,1,0,0-23.33ZM484.32,455a11.81,11.81,0,0,0-11.66,11.67,11.66,11.66,0,0,0,11.66,11.66h70a11.67,11.67,0,1,0,0-23.33ZM426,513.33A11.81,11.81,0,0,0,414.32,525v70a11.67,11.67,0,0,0,23.34,0V525A11.68,11.68,0,0,0,426,513.33Zm70.16,11.83a11.65,11.65,0,0,0-8.39,19.73l0,0,46.67,46.67a11.66,11.66,0,1,0,16.49-16.49l-46.51-46.51-.15-.16,0,0a11.64,11.64,0,0,0-8.07-3.28Z" transform="translate(-75.98 -93.33)"/></svg>